<svg width="32" height="32" viewBox="0 0 32 32" fill="none" xmlns="http://www.w3.org/2000/svg">
<rect width="32" height="32" fill="white"/>
<path fill-rule="evenodd" clip-rule="evenodd" d="M2.32457 13.0857C2.82743 5.75314 8.69943 0 15.856 0H16.1417C23.3006 0 29.1703 5.75314 29.6731 13.0857C29.9086 16.512 29.1794 20.1417 27.0354 23.0743C24.6263 26.368 22.1669 28.6309 18.3954 31.2457C17.693 31.7364 16.8568 31.9995 16 31.9995C15.1432 31.9995 14.307 31.7364 13.6046 31.2457C9.83314 28.6309 7.37143 26.368 4.96457 23.0743C2.82057 20.1417 2.08914 16.512 2.32457 13.0857ZM14.2857 9.30743C14.2857 9.08231 14.2414 8.85939 14.1552 8.6514C14.0691 8.44341 13.9428 8.25443 13.7836 8.09525C13.6244 7.93606 13.4354 7.80979 13.2275 7.72364C13.0195 7.63748 12.7966 7.59314 12.5714 7.59314C12.3463 7.59314 12.1234 7.63748 11.9154 7.72364C11.7074 7.80979 11.5184 7.93606 11.3592 8.09525C11.2001 8.25443 11.0738 8.44341 10.9876 8.6514C10.9015 8.85939 10.8571 9.08231 10.8571 9.30743V19.5931C10.8571 20.0478 11.0378 20.4838 11.3592 20.8053C11.6807 21.1268 12.1168 21.3074 12.5714 21.3074C13.0261 21.3074 13.4621 21.1268 13.7836 20.8053C14.1051 20.4838 14.2857 20.0478 14.2857 19.5931V15.5863C15.4275 15.5148 16.5725 15.5148 17.7143 15.5863V19.5931C17.7143 20.0478 17.8949 20.4838 18.2164 20.8053C18.5379 21.1268 18.9739 21.3074 19.4286 21.3074C19.8832 21.3074 20.3193 21.1268 20.6408 20.8053C20.9622 20.4838 21.1429 20.0478 21.1429 19.5931V9.30743C21.1429 8.85277 20.9622 8.41674 20.6408 8.09525C20.3193 7.77375 19.8832 7.59314 19.4286 7.59314C18.9739 7.59314 18.5379 7.77375 18.2164 8.09525C17.8949 8.41674 17.7143 8.85277 17.7143 9.30743V12.1509C16.5714 12.0869 15.4286 12.0869 14.2857 12.1509V9.30743Z" fill="#ED2020"/>
</svg>
